# Blender v2.78 (sub 0) OBJ File: 'makingtut.blend'
# www.blender.org
mtllib makingtut.mtl
o Object.2
v -0.148448 1.150464 1.369248
v -0.593790 1.150469 1.369248
v -0.148448 -0.630896 1.369248
v 0.296893 1.595810 -0.412118
v 0.296893 -1.076241 -0.412118
v -0.593790 -0.630902 1.369247
v -0.593789 -1.076241 -0.412119
v -0.593789 1.595810 -0.412118
vt 0.9713 0.7344
vt 0.9935 0.7344
vt 0.9713 0.8205
vt 0.9703 0.8635
vt 0.8844 0.8420
vt 0.8844 0.7559
vt 0.9703 0.7344
vt 0.9297 0.9531
vt 0.9518 0.8645
vt 0.9740 0.8645
vt 0.9307 0.8049
vt 0.8236 0.8049
vt 0.9307 0.5908
vt 0.4912 0.6427
vt 0.2772 0.9024
vt 0.2772 0.5908
vt 0.7118 0.9024
vt 0.6048 0.9024
vt 0.7118 0.5908
vt 0.8381 0.9531
vt 0.7937 0.8645
vt 0.8381 0.8645
vt 0.7920 0.9720
vt 0.7034 0.9935
vt 0.7920 0.8860
vt 0.6048 0.5908
vt 0.9935 0.8205
vt 0.8159 0.9531
vn -0.0000 0.0000 1.0000
vn 0.9701 0.0000 0.2425
vn 0.0000 -0.9701 0.2425
vn -1.0000 -0.0000 -0.0000
vn 0.0000 0.0000 -1.0000
vn -0.0000 0.9701 0.2425
usemtl Dark_red
s off
f 1/1/1 2/2/1 3/3/1
f 4/4/2 1/5/2 3/6/2
f 5/7/2 4/4/2 3/6/2
f 5/8/3 3/9/3 6/10/3
f 7/11/3 5/12/3 6/13/3
f 6/14/4 8/15/4 7/16/4
f 8/17/5 4/18/5 7/19/5
f 2/20/6 4/21/6 8/22/6
f 2/23/4 8/24/4 6/25/4
f 4/18/5 5/26/5 7/19/5
f 2/2/1 6/27/1 3/3/1
f 1/28/6 4/21/6 2/20/6
o Object.1
v 0.369210 -0.519569 -0.704373
v 0.369210 -0.373442 -0.665218
v 0.380397 -0.519569 -0.662622
v 0.380397 -0.644821 -0.629061
v 0.369210 -0.623947 -0.592904
v 0.369210 -0.700357 -0.516495
v 0.338647 -0.673887 -0.501213
v 0.338647 -0.697761 -0.412118
v 0.296896 -0.686570 -0.412118
v 0.296896 -0.664199 -0.328617
v 0.255145 -0.697761 -0.412118
v 0.255145 -0.673887 -0.323024
v 0.296896 -0.603072 -0.267490
v 0.338647 -0.673887 -0.323024
v 0.338647 -0.608663 -0.257802
v 0.296896 -0.519569 -0.245116
v 0.255145 -0.608663 -0.257802
v 0.255145 -0.519569 -0.233929
v 0.296896 -0.436066 -0.267490
v 0.338647 -0.519569 -0.233929
v 0.338647 -0.430476 -0.257802
v 0.296896 -0.374939 -0.328617
v 0.255145 -0.430476 -0.257802
v 0.255145 -0.365251 -0.323023
v 0.296896 -0.352568 -0.412118
v 0.338647 -0.365251 -0.323023
v 0.338647 -0.341377 -0.412118
v 0.296896 -0.374939 -0.495620
v 0.255145 -0.341377 -0.412118
v 0.255145 -0.365251 -0.501213
v 0.296896 -0.436066 -0.556747
v 0.338647 -0.365251 -0.501213
v 0.338647 -0.430476 -0.566435
v 0.296896 -0.519569 -0.579121
v 0.255145 -0.430476 -0.566435
v 0.255145 -0.519569 -0.590308
v 0.296896 -0.603072 -0.556747
v 0.338647 -0.519569 -0.590308
v 0.338647 -0.608662 -0.566435
v 0.296896 -0.664199 -0.495620
v 0.255145 -0.608662 -0.566435
v 0.255145 -0.673887 -0.501213
v 0.224582 -0.623947 -0.592904
v 0.224582 -0.700357 -0.516495
v 0.224582 -0.728324 -0.412118
v 0.213395 -0.736511 -0.537371
v 0.213395 -0.770073 -0.412118
v 0.224582 -0.700357 -0.307742
v 0.224582 -0.623947 -0.231333
v 0.213395 -0.736511 -0.286866
v 0.213395 -0.644821 -0.195176
v 0.224582 -0.519569 -0.203365
v 0.224582 -0.415191 -0.231333
v 0.213395 -0.519569 -0.161614
v 0.213395 -0.394317 -0.195175
v 0.224582 -0.338781 -0.307742
v 0.224582 -0.310813 -0.412118
v 0.213395 -0.302627 -0.286866
v 0.213395 -0.269065 -0.412118
v 0.224582 -0.338781 -0.516495
v 0.224582 -0.415191 -0.592904
v 0.213395 -0.302627 -0.537370
v 0.213395 -0.394317 -0.629061
v 0.224582 -0.519569 -0.620872
v 0.213395 -0.519569 -0.662622
v 0.213395 -0.644821 -0.629061
v 0.224582 -0.519569 -0.704373
v 0.224582 -0.665696 -0.665219
v 0.224582 -0.772669 -0.558246
v 0.255145 -0.680980 -0.691687
v 0.255145 -0.799139 -0.573527
v 0.224582 -0.811822 -0.412118
v 0.224582 -0.772670 -0.265991
v 0.255145 -0.842386 -0.412118
v 0.255145 -0.799139 -0.250709
v 0.224582 -0.665696 -0.159018
v 0.224582 -0.519569 -0.119864
v 0.255145 -0.680980 -0.132549
v 0.255145 -0.519569 -0.089300
v 0.224582 -0.373442 -0.159018
v 0.224582 -0.266468 -0.265991
v 0.255145 -0.358158 -0.132549
v 0.255145 -0.239999 -0.250709
v 0.224582 -0.227316 -0.412118
v 0.224582 -0.266468 -0.558246
v 0.255145 -0.196752 -0.412118
v 0.255145 -0.239999 -0.573527
v 0.224582 -0.373442 -0.665218
v 0.255145 -0.358158 -0.691687
v 0.255145 -0.519569 -0.734937
v 0.296896 -0.352568 -0.701375
v 0.296896 -0.519569 -0.746124
v 0.296896 -0.686570 -0.701375
v 0.338647 -0.680980 -0.691687
v 0.338647 -0.799139 -0.573527
v 0.369210 -0.772669 -0.558246
v 0.369210 -0.811822 -0.412118
v 0.380397 -0.770073 -0.412118
v 0.380397 -0.736511 -0.286866
v 0.369210 -0.700357 -0.307742
v 0.369210 -0.623947 -0.231333
v 0.369210 -0.519569 -0.203365
v 0.380397 -0.644821 -0.195176
v 0.380397 -0.519569 -0.161614
v 0.369210 -0.415191 -0.231333
v 0.369210 -0.338781 -0.307742
v 0.380397 -0.394317 -0.195175
v 0.380397 -0.302627 -0.286866
v 0.369210 -0.310813 -0.412118
v 0.369210 -0.338781 -0.516495
v 0.380397 -0.269065 -0.412118
v 0.380397 -0.302627 -0.537370
v 0.369210 -0.415191 -0.592904
v 0.369210 -0.519569 -0.620872
v 0.380397 -0.394317 -0.629061
v 0.369210 -0.266468 -0.558246
v 0.369210 -0.227316 -0.412118
v 0.338647 -0.196752 -0.412118
v 0.338647 -0.239999 -0.250709
v 0.369210 -0.266468 -0.265991
v 0.369210 -0.373442 -0.159018
v 0.338647 -0.358158 -0.132549
v 0.338647 -0.519569 -0.089300
v 0.369210 -0.519569 -0.119864
v 0.369210 -0.665696 -0.159018
v 0.338647 -0.680980 -0.132549
v 0.338647 -0.799139 -0.250709
v 0.369210 -0.772670 -0.265991
v 0.338647 -0.842386 -0.412118
v 0.296896 -0.853577 -0.412118
v 0.296896 -0.808828 -0.579121
v 0.296896 -0.808828 -0.245116
v 0.296896 -0.686570 -0.122861
v 0.296896 -0.519569 -0.078113
v 0.296896 -0.352568 -0.122861
v 0.296896 -0.230310 -0.245116
v 0.296896 -0.185561 -0.412118
v 0.338647 -0.239999 -0.573527
v 0.296896 -0.230310 -0.579121
v 0.338647 -0.358158 -0.691687
v 0.338647 -0.519569 -0.734937
v 0.369210 -0.665696 -0.665219
v 0.369210 -0.728324 -0.412118
v 0.380397 -0.736511 -0.537371
vt 0.8237 0.5277
vt 0.8237 0.5456
vt 0.8186 0.5290
vt 0.8108 0.5157
vt 0.8073 0.5192
vt 0.7960 0.5128
vt 0.7954 0.5161
vt 0.2448 0.9328
vt 0.2485 0.9448
vt 0.2448 0.9437
vt 0.2397 0.9331
vt 0.2397 0.9241
vt 0.2346 0.9328
vt 0.2346 0.9232
vt 0.2761 0.9243
vt 0.2812 0.9232
vt 0.2761 0.9315
vt 0.2710 0.9232
vt 0.2710 0.9309
vt 0.2761 0.9414
vt 0.2812 0.9309
vt 0.2812 0.9414
vt 0.2761 0.9513
vt 0.2710 0.9414
vt 0.2710 0.9519
vt 0.2761 0.9585
vt 0.2812 0.9519
vt 0.2812 0.9596
vt 0.2598 0.9520
vt 0.2547 0.9529
vt 0.2598 0.9430
vt 0.2648 0.9529
vt 0.2648 0.9433
vt 0.2598 0.9328
vt 0.2547 0.9433
vt 0.2547 0.9324
vt 0.2598 0.9241
vt 0.2648 0.9324
vt 0.2648 0.9232
vt 0.7608 0.5881
vt 0.7557 0.5775
vt 0.7608 0.5782
vt 0.7659 0.5775
vt 0.7659 0.5881
vt 0.7608 0.5979
vt 0.7557 0.5881
vt 0.7557 0.5986
vt 0.2397 0.9433
vt 0.2448 0.9529
vt 0.2397 0.9520
vt 0.2346 0.9529
vt 0.2346 0.9437
vt 0.1188 0.9451
vt 0.1161 0.9426
vt 0.1285 0.9397
vt 0.1275 0.9362
vt 0.2309 0.9448
vt 0.2309 0.9320
vt 0.1262 0.9314
vt 0.1407 0.9362
vt 0.1420 0.9314
vt 0.1521 0.9426
vt 0.1494 0.9451
vt 0.1551 0.9546
vt 0.1586 0.9536
vt 0.1557 0.9391
vt 0.1636 0.9524
vt 0.1586 0.9664
vt 0.1551 0.9655
vt 0.1494 0.9749
vt 0.1521 0.9775
vt 0.1636 0.9677
vt 0.1557 0.9810
vt 0.1407 0.9839
vt 0.1397 0.9804
vt 0.1285 0.9804
vt 0.1275 0.9839
vt 0.1420 0.9886
vt 0.1262 0.9886
vt 0.1161 0.9775
vt 0.2510 0.9441
vt 0.2510 0.9313
vt 0.1188 0.9749
vt 0.1131 0.9655
vt 0.1095 0.9664
vt 0.1125 0.9810
vt 0.1046 0.9677
vt 0.1095 0.9536
vt 0.1131 0.9546
vt 0.1046 0.9524
vt 0.1125 0.9391
vt 0.0997 0.9511
vt 0.1089 0.9356
vt 0.1249 0.9266
vt 0.1063 0.9330
vt 0.1239 0.9232
vt 0.1433 0.9266
vt 0.1593 0.9356
vt 0.1945 0.9423
vt 0.1983 0.9415
vt 0.1945 0.9602
vt 0.1983 0.9613
vt 0.1619 0.9330
vt 0.1685 0.9511
vt 0.1685 0.9690
vt 0.1721 0.9501
vt 0.1721 0.9699
vt 0.1593 0.9845
vt 0.1433 0.9934
vt 0.1619 0.9870
vt 0.1443 0.9969
vt 0.1745 0.9419
vt 0.1782 0.9408
vt 0.1745 0.9598
vt 0.1249 0.9934
vt 0.1089 0.9845
vt 0.1239 0.9969
vt 0.1063 0.9870
vt 0.0997 0.9690
vt 0.0961 0.9699
vt 0.0961 0.9501
vt 0.8188 0.3399
vt 0.8137 0.3406
vt 0.8188 0.3208
vt 0.8137 0.3208
vt 0.8188 0.3018
vt 0.8137 0.3011
vt 0.8087 0.3018
vt 0.8087 0.2878
vt 0.7999 0.4996
vt 0.8175 0.5096
vt 0.7986 0.5032
vt 0.7803 0.5032
vt 0.7814 0.5080
vt 0.7678 0.5156
vt 0.7715 0.5191
vt 0.7650 0.5301
vt 0.7689 0.5310
vt 0.7689 0.5419
vt 0.7650 0.5429
vt 0.7600 0.5289
vt 0.7600 0.5442
vt 0.7715 0.5540
vt 0.7745 0.5513
vt 0.7842 0.5568
vt 0.7829 0.5604
vt 0.7678 0.5575
vt 0.7814 0.5652
vt 0.7960 0.5604
vt 0.7954 0.5568
vt 0.2686 0.9441
vt 0.2686 0.9313
vt 0.8073 0.5541
vt 0.7972 0.5652
vt 0.8108 0.5576
vt 0.8139 0.5430
vt 0.8107 0.5420
vt 0.7520 0.5757
vt 0.7520 0.5881
vt 0.8139 0.5302
vt 0.8186 0.5443
vt 0.8145 0.5611
vt 0.7986 0.5700
vt 0.7999 0.5734
vt 0.1884 0.9606
vt 0.1884 0.9408
vt 0.1921 0.9598
vt 0.1921 0.9419
vt 0.7803 0.5699
vt 0.7644 0.5609
vt 0.7621 0.5634
vt 0.2248 0.9620
vt 0.2248 0.9429
vt 0.2285 0.9602
vt 0.2285 0.9429
vt 0.7552 0.5454
vt 0.7552 0.5275
vt 0.2248 0.9238
vt 0.2285 0.9256
vt 0.7520 0.5265
vt 0.7621 0.5094
vt 0.7644 0.5121
vt 0.2084 0.9613
vt 0.2084 0.9415
vt 0.2122 0.9602
vt 0.2122 0.9423
vt 0.2033 0.9413
vt 0.2033 0.9232
vt 0.2084 0.9241
vt 0.1983 0.9241
vt 0.8137 0.2866
vt 0.8188 0.2878
vt 0.2033 0.9617
vt 0.1983 0.9780
vt 0.2033 0.9790
vt 0.2084 0.9780
vt 0.2197 0.9232
vt 0.2197 0.9429
vt 0.2146 0.9429
vt 0.2146 0.9620
vt 0.2197 0.9626
vt 0.1833 0.9232
vt 0.1884 0.9241
vt 0.1833 0.9404
vt 0.1782 0.9606
vt 0.1833 0.9609
vt 0.1884 0.9781
vt 0.1833 0.9790
vt 0.8087 0.3399
vt 0.8137 0.3550
vt 0.8087 0.3539
vt 0.8276 0.5464
vt 0.8175 0.5635
vt 0.8087 0.3208
vt 0.8276 0.5267
vt 0.8145 0.5122
vt 0.1782 0.9781
vt 0.7797 0.5733
vt 0.7829 0.5127
vt 0.7745 0.5215
vt 0.7842 0.5161
vt 0.7972 0.5080
vt 0.7797 0.4996
vt 0.8188 0.3539
vt 0.1782 0.9241
vt 0.2146 0.9238
vt 0.1443 0.9232
vt 0.7520 0.6004
vt 0.7659 0.5986
vt 0.8051 0.5514
vt 0.2547 0.9232
vt 0.2710 0.9596
vt 0.1397 0.9397
vt 0.2448 0.9232
vt 0.2485 0.9320
vt 0.8051 0.5216
vn 0.9636 0.0692 -0.2582
vn 0.9636 -0.0692 -0.2582
vn 0.9636 0.0692 0.2582
vn 0.9636 0.1890 0.1890
vn 0.6948 0.5086 0.5086
vn 0.6948 0.6947 0.1862
vn 0.2506 0.9351 0.2506
vn 0.2506 0.9351 -0.2505
vn -0.2506 0.9351 -0.2505
vn -0.2506 0.9351 -0.2506
vn -0.2506 0.6846 -0.6845
vn 0.2506 0.6846 -0.6845
vn 0.2505 0.6845 -0.6846
vn 0.2505 0.2506 -0.9351
vn -0.2505 0.2506 -0.9351
vn -0.2506 0.2506 -0.9351
vn -0.2506 -0.2506 -0.9351
vn 0.2506 -0.2506 -0.9351
vn 0.2505 -0.2506 -0.9351
vn 0.2505 -0.6846 -0.6846
vn -0.2505 -0.6846 -0.6846
vn -0.2506 -0.6845 -0.6846
vn -0.2506 -0.9351 -0.2505
vn 0.2506 -0.9351 -0.2505
vn 0.2506 -0.9351 -0.2506
vn 0.2507 -0.9351 0.2505
vn -0.2507 -0.9351 0.2505
vn -0.2506 -0.9351 0.2506
vn -0.2506 -0.6846 0.6845
vn 0.2506 -0.6846 0.6845
vn 0.2505 -0.6845 0.6846
vn 0.2505 -0.2506 0.9351
vn -0.2505 -0.2506 0.9351
vn -0.2506 -0.2506 0.9351
vn -0.2506 0.2506 0.9351
vn 0.2506 0.2506 0.9351
vn 0.2505 0.2506 0.9351
vn 0.2505 0.6846 0.6846
vn -0.2505 0.6846 0.6846
vn -0.2506 0.6845 0.6846
vn -0.2506 0.9351 0.2505
vn -0.6948 0.5086 0.5086
vn -0.6948 0.6947 0.1862
vn -0.6947 0.6947 0.1862
vn -0.9636 0.2582 0.0692
vn -0.9636 0.2582 -0.0692
vn -0.6948 0.6947 -0.1861
vn -0.6948 0.5086 -0.5086
vn -0.9636 0.1890 -0.1890
vn -0.9636 0.0692 -0.2582
vn -0.6947 0.1862 -0.6947
vn -0.6947 -0.1862 -0.6947
vn -0.6948 -0.1862 -0.6947
vn -0.9636 -0.0692 -0.2582
vn -0.9636 -0.1890 -0.1890
vn -0.6948 -0.5086 -0.5086
vn -0.6948 -0.6947 -0.1862
vn -0.6947 -0.6947 -0.1862
vn -0.9636 -0.2582 -0.0692
vn -0.9636 -0.2582 0.0692
vn -0.6948 -0.6947 0.1861
vn -0.6948 -0.5086 0.5086
vn -0.9636 -0.1890 0.1890
vn -0.9636 -0.0692 0.2582
vn -0.6948 -0.1862 0.6947
vn -0.6947 0.1862 0.6947
vn -0.9636 0.0692 0.2582
vn -0.6948 -0.6947 -0.1861
vn -0.6947 -0.6947 0.1861
vn -0.6948 0.1862 0.6947
vn -0.9636 0.1890 0.1890
vn -0.6948 0.6947 0.1861
vn -0.6947 0.6947 -0.1861
vn -0.6948 0.1862 -0.6947
vn -0.2505 -0.2506 -0.9351
vn 0.6948 -0.5086 -0.5086
vn 0.6948 -0.6947 -0.1861
vn 0.9636 -0.2582 -0.0692
vn 0.9636 -0.2582 0.0692
vn 0.9636 0.2582 -0.0692
vn 0.9636 0.1890 -0.1890
vn 0.6948 0.5086 -0.5086
vn 0.6948 0.1862 -0.6947
vn 0.6948 -0.1862 -0.6947
vn 0.9636 -0.1890 -0.1890
vn 0.6947 -0.6947 -0.1862
vn 0.6947 -0.6947 0.1862
vn 0.6948 -0.6947 0.1861
vn 0.9636 -0.1890 0.1890
vn 0.6948 -0.5086 0.5086
vn 0.6948 -0.1862 0.6947
vn 0.6947 -0.1862 0.6947
vn 0.9636 -0.0692 0.2582
vn 0.6947 0.6947 -0.1861
vn 0.6947 0.6947 0.1861
vn 0.6948 0.6947 0.1861
vn 0.9636 0.2582 0.0692
vn 0.6948 0.1862 0.6947
vn 0.6947 -0.6947 0.1861
vn 0.2506 -0.9351 0.2505
vn -0.2506 -0.9351 -0.2506
vn 0.2506 -0.9351 0.2506
vn -0.2505 -0.6846 0.6846
vn 0.2505 -0.6846 0.6846
vn 0.2506 -0.2506 0.9351
vn -0.2505 0.2506 0.9351
vn 0.2506 0.6845 0.6846
vn -0.2506 0.9351 0.2506
vn 0.2506 0.9351 -0.2506
vn 0.2506 0.6845 -0.6845
vn 0.2506 0.9351 0.2505
vn 0.6948 0.6947 -0.1861
vn 0.6947 0.6947 -0.1862
vn 0.6947 -0.6947 -0.1861
vn 0.2506 -0.6845 -0.6846
vn 0.2506 0.2506 -0.9351
vn -0.2505 0.6845 -0.6846
vn -0.2506 0.6845 -0.6845
vn -0.6947 0.6947 0.1861
vn -0.2506 -0.9351 0.2505
vn -0.6947 -0.6947 -0.1861
vn 0.6947 0.1862 0.6947
vn -0.2505 -0.6845 0.6846
vn -0.6947 -0.6947 0.1862
vn 0.6948 -0.6947 -0.1862
vn 0.6947 -0.1862 -0.6947
vn -0.6947 0.6947 -0.1862
vn 0.6947 0.6947 0.1862
usemtl mat10
s off
f 9/29/7 10/30/7 11/31/7
f 12/32/8 9/29/8 11/31/8
f 12/32/9 11/31/9 13/33/9
f 14/34/10 12/32/10 13/33/10
f 14/34/11 13/33/11 15/35/11
f 16/36/12 14/37/12 15/38/12
f 16/36/13 15/38/13 17/39/13
f 18/40/14 16/36/14 17/39/14
f 17/39/15 19/41/15 18/40/15
f 19/41/16 20/42/16 18/40/16
f 18/43/17 20/44/17 21/45/17
f 21/45/18 22/46/18 18/43/18
f 23/47/19 22/46/19 21/45/19
f 24/48/20 23/47/20 21/45/20
f 21/45/21 25/49/21 24/48/21
f 25/49/22 26/50/22 24/48/22
f 24/48/23 26/50/23 27/51/23
f 27/51/24 28/52/24 24/48/24
f 29/53/25 28/52/25 27/51/25
f 30/54/26 29/53/26 27/51/26
f 27/51/27 31/55/27 30/54/27
f 31/55/28 32/56/28 30/54/28
f 30/57/29 32/58/29 33/59/29
f 33/59/30 34/60/30 30/57/30
f 35/61/31 34/60/31 33/59/31
f 36/62/32 35/61/32 33/59/32
f 33/59/33 37/63/33 36/62/33
f 37/63/34 38/64/34 36/62/34
f 36/62/35 38/64/35 39/65/35
f 39/65/36 40/66/36 36/62/36
f 41/67/37 40/66/37 39/65/37
f 42/68/38 41/69/38 39/70/38
f 39/70/39 43/71/39 42/68/39
f 43/71/40 44/72/40 42/68/40
f 42/68/41 44/72/41 45/73/41
f 45/73/42 46/74/42 42/68/42
f 47/75/43 46/74/43 45/73/43
f 48/76/44 47/77/44 45/78/44
f 45/78/45 49/79/45 48/76/45
f 49/79/46 50/80/46 48/76/46
f 48/76/47 50/80/47 17/39/47
f 49/81/48 51/82/48 50/83/48
f 51/82/48 52/84/48 50/83/48
f 50/80/49 52/85/49 19/41/49
f 52/85/50 53/86/50 19/41/50
f 52/84/51 54/87/51 53/88/51
f 54/87/51 55/89/51 53/88/51
f 53/88/52 55/89/52 56/90/52
f 53/88/53 56/90/53 20/91/53
f 20/91/54 56/90/54 25/92/54
f 56/90/54 57/93/54 25/92/54
f 56/90/55 58/94/55 57/93/55
f 58/94/55 59/95/55 57/93/55
f 57/93/56 59/95/56 60/96/56
f 57/93/57 60/96/57 26/97/57
f 26/97/58 60/96/58 31/98/58
f 60/96/59 61/99/59 31/98/59
f 60/96/60 62/100/60 61/99/60
f 62/100/60 63/101/60 61/99/60
f 61/99/61 63/101/61 64/102/61
f 61/99/62 64/102/62 32/103/62
f 32/103/63 64/102/63 37/104/63
f 64/102/64 65/105/64 37/104/64
f 64/102/65 66/106/65 65/105/65
f 66/106/65 67/107/65 65/105/65
f 65/105/66 67/107/66 68/108/66
f 65/109/67 68/110/67 38/64/67
f 38/111/68 68/108/68 43/112/68
f 68/108/68 69/113/68 43/112/68
f 68/108/69 70/114/69 69/113/69
f 70/114/69 71/115/69 69/113/69
f 69/113/70 71/115/70 72/116/70
f 69/113/71 72/116/71 44/117/71
f 44/117/72 72/116/72 49/81/72
f 71/115/70 73/118/70 72/116/70
f 72/116/73 73/118/73 51/82/73
f 73/118/73 74/119/73 51/82/73
f 73/118/60 75/120/60 74/119/60
f 75/120/60 76/121/60 74/119/60
f 74/119/61 76/121/61 54/87/61
f 76/121/61 77/122/61 54/87/61
f 76/121/62 78/123/62 77/122/62
f 78/123/62 79/124/62 77/122/62
f 77/122/74 79/124/74 80/125/74
f 77/122/65 80/125/65 55/89/65
f 55/89/66 80/125/66 58/94/66
f 80/125/66 81/126/66 58/94/66
f 80/127/75 82/128/75 81/129/75
f 82/128/67 83/130/67 81/129/67
f 81/126/68 83/131/68 84/132/68
f 81/126/69 84/132/69 59/95/69
f 59/95/70 84/132/70 62/100/70
f 84/132/70 85/133/70 62/100/70
f 84/132/71 86/134/71 85/133/71
f 86/134/71 87/135/71 85/133/71
f 85/133/76 87/135/76 88/136/76
f 85/133/73 88/136/73 63/101/73
f 63/101/77 88/136/77 66/106/77
f 88/136/77 89/137/77 66/106/77
f 88/136/48 90/138/48 89/137/48
f 90/138/48 91/139/48 89/137/48
f 89/140/78 91/141/78 92/142/78
f 89/137/51 92/143/51 67/107/51
f 67/107/52 92/143/52 70/114/52
f 92/143/52 93/144/52 70/114/52
f 92/143/79 94/145/79 93/144/79
f 94/145/53 95/146/53 93/144/53
f 93/144/54 95/146/54 96/147/54
f 93/144/55 96/147/55 71/115/55
f 95/146/54 97/148/54 96/147/54
f 96/147/80 97/148/80 75/120/80
f 97/148/80 98/149/80 75/120/80
f 97/150/21 99/151/21 98/152/21
f 99/151/22 100/153/22 98/152/22
f 98/152/23 100/153/23 78/154/23
f 100/153/81 101/155/81 78/154/81
f 101/155/25 100/153/25 102/156/25
f 103/157/26 101/155/26 102/156/26
f 103/158/82 102/159/82 104/160/82
f 105/161/83 103/158/83 104/160/83
f 105/161/84 104/160/84 106/162/84
f 107/163/85 105/161/85 106/162/85
f 107/163/86 106/162/86 108/164/86
f 109/165/87 107/163/87 108/164/87
f 109/165/88 108/164/88 23/166/88
f 28/167/89 109/165/89 23/166/89
f 110/168/89 109/165/89 28/167/89
f 110/168/7 111/169/7 109/165/7
f 112/170/7 111/169/7 110/168/7
f 113/171/8 112/170/8 110/168/8
f 113/171/90 110/168/90 29/172/90
f 34/173/82 113/171/82 29/172/82
f 114/174/82 113/171/82 34/173/82
f 114/174/91 115/175/91 113/171/91
f 116/176/91 115/175/91 114/174/91
f 117/177/84 116/176/84 114/174/84
f 117/177/92 114/174/92 35/178/92
f 40/66/93 117/179/93 35/61/93
f 118/180/94 117/179/94 40/66/94
f 118/181/85 119/182/85 117/177/85
f 120/183/85 119/182/85 118/181/85
f 121/184/95 120/183/95 118/181/95
f 121/184/96 118/181/96 41/185/96
f 46/74/97 121/186/97 41/69/97
f 122/187/98 121/186/98 46/74/98
f 122/188/99 123/189/99 121/184/99
f 11/31/99 123/189/99 122/188/99
f 123/189/95 120/183/95 121/184/95
f 123/189/87 124/190/87 120/183/87
f 124/190/86 125/191/86 120/183/86
f 124/190/100 126/192/100 125/191/100
f 126/193/101 127/194/101 125/195/101
f 125/195/102 127/194/102 128/196/102
f 125/191/103 128/197/103 119/182/103
f 119/182/103 128/197/103 116/176/103
f 128/197/10 129/198/10 116/176/10
f 128/197/11 130/199/11 129/198/11
f 130/200/104 131/201/104 129/202/104
f 129/202/104 131/201/104 132/203/104
f 129/198/9 132/204/9 115/175/9
f 115/175/9 132/204/9 112/170/9
f 132/204/99 133/205/99 112/170/99
f 132/203/97 134/206/97 133/207/97
f 134/208/96 135/209/96 133/205/96
f 133/205/96 135/209/96 136/210/96
f 133/205/95 136/210/95 111/169/95
f 111/169/95 136/210/95 107/163/95
f 135/211/94 137/212/94 136/213/94
f 136/213/105 137/212/105 105/214/105
f 135/211/106 138/215/106 137/212/106
f 138/215/31 139/216/31 137/212/31
f 137/212/30 139/216/30 103/217/30
f 139/216/107 138/215/107 82/128/107
f 79/218/29 139/216/29 82/128/29
f 101/155/28 139/219/28 79/220/28
f 140/221/108 138/215/108 135/211/108
f 138/215/34 140/221/34 83/130/34
f 83/130/35 140/221/35 86/222/35
f 140/221/109 141/223/109 86/222/109
f 141/223/110 140/221/110 134/224/110
f 131/201/38 141/225/38 134/206/38
f 142/226/111 141/225/111 131/201/111
f 141/225/40 142/226/40 87/227/40
f 87/227/41 142/226/41 90/228/41
f 142/226/112 143/229/112 90/228/112
f 143/229/43 142/226/43 130/200/43
f 127/194/44 143/230/44 130/231/44
f 144/232/113 143/230/113 127/194/113
f 143/230/46 144/232/46 91/141/46
f 91/141/47 144/232/47 94/233/47
f 144/232/114 145/234/114 94/233/114
f 145/234/13 144/232/13 126/193/13
f 146/235/14 145/234/14 126/193/14
f 147/236/115 145/234/115 146/235/115
f 148/237/116 147/238/116 146/239/116
f 148/240/88 146/241/88 10/30/88
f 10/30/88 146/241/88 124/190/88
f 99/151/19 147/238/19 148/237/19
f 149/242/20 99/151/20 148/237/20
f 149/243/89 148/240/89 9/29/89
f 150/244/90 149/243/90 9/29/90
f 102/159/90 149/243/90 150/244/90
f 145/234/16 147/236/16 95/245/16
f 134/224/36 140/221/36 135/211/36
f 131/201/97 134/206/97 132/203/97
f 130/200/42 142/226/42 131/201/42
f 127/246/11 130/199/11 128/197/11
f 126/193/117 144/232/117 127/194/117
f 146/241/118 126/192/118 124/190/118
f 10/30/87 124/190/87 123/189/87
f 120/183/86 125/191/86 119/182/86
f 119/182/84 116/176/84 117/177/84
f 116/176/10 129/198/10 115/175/10
f 115/175/8 112/170/8 113/171/8
f 112/170/99 133/205/99 111/169/99
f 111/169/87 107/163/87 109/165/87
f 108/164/86 106/162/86 151/247/86
f 108/164/118 151/247/118 22/248/118
f 22/248/119 151/247/119 16/249/119
f 106/162/103 152/250/103 151/247/103
f 151/247/103 152/250/103 14/34/103
f 136/210/85 105/161/85 107/163/85
f 106/162/84 104/160/84 152/250/84
f 104/160/91 150/244/91 152/250/91
f 152/250/91 150/244/91 12/32/91
f 137/251/120 103/158/120 105/161/120
f 104/160/82 102/159/82 150/244/82
f 139/219/121 101/155/121 103/157/121
f 102/156/24 100/153/24 149/242/24
f 100/153/122 99/151/122 149/242/122
f 147/238/123 99/151/123 97/150/123
f 95/252/124 147/238/124 97/150/124
f 94/233/15 145/234/15 95/245/15
f 91/141/125 94/233/125 92/142/125
f 90/253/45 143/230/45 91/141/45
f 87/135/76 90/138/76 88/136/76
f 86/254/39 141/225/39 87/227/39
f 83/131/68 86/134/68 84/132/68
f 82/128/126 138/215/126 83/130/126
f 79/124/127 82/255/127 80/125/127
f 78/154/27 101/155/27 79/220/27
f 98/149/59 78/123/59 76/121/59
f 75/120/59 98/149/59 76/121/59
f 96/147/56 75/120/56 73/118/56
f 71/115/56 96/147/56 73/118/56
f 70/114/55 93/144/55 71/115/55
f 67/107/66 70/114/66 68/108/66
f 66/106/51 89/137/51 67/107/51
f 63/101/61 66/106/61 64/102/61
f 62/100/73 85/133/73 63/101/73
f 59/95/56 62/100/56 60/96/56
f 58/94/69 81/126/69 59/95/69
f 55/89/52 58/94/52 56/90/52
f 54/87/65 77/122/65 55/89/65
f 74/119/77 54/87/77 52/84/77
f 51/82/77 74/119/77 52/84/77
f 72/116/76 51/82/76 49/81/76
f 15/38/113 47/77/113 48/76/113
f 47/75/128 122/187/128 46/74/128
f 13/256/104 122/187/104 47/75/104
f 44/72/112 49/257/112 45/73/112
f 43/112/71 69/113/71 44/117/71
f 46/74/111 41/69/111 42/68/111
f 41/185/96 118/181/96 40/258/96
f 38/64/129 43/259/129 39/65/129
f 37/63/130 65/109/130 38/64/130
f 40/66/108 35/61/108 36/62/108
f 35/178/131 114/174/131 34/173/131
f 32/58/107 37/63/107 33/59/107
f 31/98/62 61/99/62 32/103/62
f 34/260/121 29/53/121 30/54/121
f 29/172/132 110/168/132 28/167/132
f 26/50/81 31/55/81 27/51/81
f 25/92/80 57/93/80 26/97/80
f 28/52/122 23/47/122 24/48/122
f 23/166/88 108/164/88 22/248/88
f 20/44/123 25/49/123 21/45/123
f 19/261/133 53/88/133 20/91/133
f 50/80/114 19/41/114 17/39/114
f 22/262/115 16/36/115 18/40/115
f 17/39/117 15/38/117 48/76/117
f 151/263/134 14/37/134 16/36/134
f 15/35/11 13/33/11 47/264/11
f 152/250/10 12/32/10 14/34/10
f 13/33/9 11/31/9 122/188/9
f 150/244/8 9/29/8 12/32/8
f 11/31/7 10/30/7 123/189/7
f 9/29/89 148/240/89 10/30/89
o Object.3
v -0.593791 -0.630901 -2.193486
v -0.593791 1.150470 -2.193486
v -0.148449 -0.630896 -2.193487
v -0.593790 -1.076241 -0.412119
v 0.296893 -1.076241 -0.412119
v -0.593790 1.595810 -0.412119
v 0.296893 1.595810 -0.412120
v -0.148449 1.150465 -2.193487
vt 0.5573 0.2499
vt 0.5573 0.4095
vt 0.5162 0.2499
vt 0.2622 0.5632
vt 0.2211 0.5632
vt 0.2622 0.4162
vt 0.4553 0.4942
vt 0.4248 0.3851
vt 0.4858 0.3851
vt 0.6106 0.4394
vt 0.5496 0.4394
vt 0.6106 0.2616
vt 0.4261 0.2307
vt 0.5482 0.0825
vt 0.5482 0.2603
vt 0.6730 0.4942
vt 0.6120 0.4942
vt 0.6730 0.3851
vt 0.6425 0.3851
vt 0.4248 0.2307
vt 0.3002 0.2603
vt 0.4248 0.1121
vt 0.5496 0.2616
vt 0.3002 0.0825
vt 0.6744 0.2616
vt 0.7049 0.3802
vt 0.6744 0.3802
vt 0.1818 0.0486
vt 0.3462 0.0087
vt 0.1818 0.2082
vn 0.0000 -0.0000 -1.0000
vn 0.0000 -0.9701 -0.2425
vn 0.0000 0.0000 1.0000
vn -1.0000 -0.0000 0.0000
vn -0.0000 0.9701 -0.2425
vn 0.9701 0.0000 -0.2425
usemtl Purple
s off
f 153/265/135 154/266/135 155/267/135
f 153/268/136 155/269/136 156/270/136
f 155/271/136 157/272/136 156/273/136
f 156/274/137 157/275/137 158/276/137
f 154/277/138 156/278/138 158/279/138
f 158/280/139 159/281/139 154/282/139
f 159/281/139 160/283/139 154/282/139
f 160/284/140 159/285/140 155/286/140
f 157/275/137 159/287/137 158/276/137
f 155/286/140 159/285/140 157/288/140
f 155/289/135 154/290/135 160/291/135
f 153/292/138 156/293/138 154/294/138
